<?xml version="1.0" encoding="UTF-8"?><!DOCTYPE svg PUBLIC "-//W3C//DTD SVG 1.1//EN" "http://www.w3.org/Graphics/SVG/1.1/DTD/svg11.dtd"><svg xmlns="http://www.w3.org/2000/svg"><symbol id="icon-social-twitter" viewBox="0 0 32 32"><path d="M20 3.33A6.57 6.57 0 0015.61 10l.05 1.12-1.17-.15a18.8 18.8 0 01-10.83-5.4L2.13 4.09l-.41 1.12A6.64 6.64 0 003.15 12c.92 1 .71 1.12-.87.51a2.7 2.7 0 00-1.07-.25A9.25 9.25 0 002 15.4a7.28 7.28 0 003.11 3l1.12.51h-1.3c-1.27 0-1.33 0-1.17.51A6.82 6.82 0 008 23.15l1.43.46-1.22.71a12.86 12.86 0 01-6.12 1.73 4.85 4.85 0 00-1.89.2c0 .25 2.8 1.53 4.38 2a19.23 19.23 0 0015-1.73 19.87 19.87 0 007.59-9 24.36 24.36 0 001.52-6.81c0-1.07 0-1.22 1.33-2.45a9.31 9.31 0 001.58-1.83c.25-.46.2-.46-1-.05-1.94.71-2.19.61-1.27-.46a6.54 6.54 0 001.57-2.45s-.36 0-.71.25a10.83 10.83 0 01-2 .76L27 4.91l-1.12-.76a10.3 10.3 0 00-1.94-1A6.74 6.74 0 0022.15 3a12 12 0 00-2 .41"/></symbol></svg>