<svg xmlns="http://www.w3.org/2000/svg" viewBox="0 0 32 32"><title>social-twitter</title><path d="M20,3.33A6.57,6.57,0,0,0,15.61,10l.05,1.12-1.17-.15A18.8,18.8,0,0,1,3.66,5.57L2.13,4.09,1.72,5.21A6.64,6.64,0,0,0,3.15,12c.92,1,.71,1.12-.87.51a2.7,2.7,0,0,0-1.07-.25A9.25,9.25,0,0,0,2,15.4a7.28,7.28,0,0,0,3.11,3l1.12.51H4.93c-1.27,0-1.33,0-1.17.51A6.82,6.82,0,0,0,8,23.15l1.43.46-1.22.71a12.86,12.86,0,0,1-6.12,1.73,4.85,4.85,0,0,0-1.89.2c0,.25,2.8,1.53,4.38,2a19.23,19.23,0,0,0,15-1.73,19.87,19.87,0,0,0,7.59-9,24.36,24.36,0,0,0,1.52-6.81c0-1.07,0-1.22,1.33-2.45a9.31,9.31,0,0,0,1.58-1.83c.25-.46.2-.46-1-.05-1.94.71-2.19.61-1.27-.46A6.54,6.54,0,0,0,30.9,3.47s-.36,0-.71.25a10.83,10.83,0,0,1-2,.76L27,4.91l-1.12-.76a10.3,10.3,0,0,0-1.94-1A6.74,6.74,0,0,0,22.15,3a12,12,0,0,0-2,.41"/></svg>
